<?xml version="1.0" encoding="UTF-8"?>
<svg version="1.1" xmlns="http://www.w3.org/2000/svg" width="126" height="207">
<path d="M0 0 C13.82286127 10.4038531 21.534023 24.70202916 25.07421875 41.4375 C28.03948217 77.0206611 9.25531213 106.50213845 -9.61328125 135.1875 C-10.15976318 136.01852234 -10.15976318 136.01852234 -10.71728516 136.86633301 C-20.36692197 151.52927328 -30.10696802 166.11661642 -40.33154297 180.38671875 C-43.81491342 185.28068835 -47.20618147 190.24032229 -50.61328125 195.1875 C-51.27328125 194.8575 -51.93328125 194.5275 -52.61328125 194.1875 C-45.18828125 154.0925 -45.18828125 154.0925 -37.61328125 113.1875 C-41.24328125 113.1875 -44.87328125 113.1875 -48.61328125 113.1875 C-64.91073398 109.99227104 -79.92886185 100.75345023 -89.61328125 87.1875 C-99.03050962 71.93545132 -102.85329547 55.81938551 -99.36328125 38.0625 C-96.73078433 27.01086546 -92.64490018 19.1280936 -85.61328125 10.1875 C-84.98550781 9.34832031 -84.35773438 8.50914063 -83.7109375 7.64453125 C-62.71835744 -16.94454298 -25.18420906 -17.46707474 0 0 Z " fill="#EE0202" transform="translate(100.61328125,11.8125)"/>
<path d="M0 0 C0.99 0.99 0.99 0.99 2 2 C-6.65586503 23.83490765 -19.10817535 43.77346548 -32.14306641 63.22558594 C-33.98584349 65.978849 -35.81321143 68.74175736 -37.63671875 71.5078125 C-44.45092214 81.82271161 -51.4506342 91.98483687 -58.62158203 102.05419922 C-62.12766909 107.00345778 -65.559839 112.00481673 -69 117 C-69.66 116.67 -70.32 116.34 -71 116 C-66.05 89.27 -61.1 62.54 -56 35 C-48.08 34.01 -48.08 34.01 -40 33 C-36.93867153 32.0537247 -34.48713364 31.24382954 -31.6875 29.875 C-31.02999756 29.56788086 -30.37249512 29.26076172 -29.69506836 28.94433594 C-16.51801868 22.56735817 -6.68428054 13.07794018 0 0 Z " fill="#C5161E" transform="translate(119,90)"/>
<path d="M0 0 C4.41617568 2.29317012 7.26128693 5.37933235 10.0625 9.4375 C10.68125 10.30375 11.3 11.17 11.9375 12.0625 C13.98807966 18.21423899 14.25208284 24.87403852 12.18359375 31.0703125 C8.69928614 37.85493787 3.79712172 42.64610019 -3.375 45.3125 C-11.26002435 47.52350345 -16.46399776 46.87556804 -23.60546875 42.9921875 C-27.14146908 40.63485395 -29.55205017 37.92513787 -31.9375 34.4375 C-32.55625 33.57125 -33.175 32.705 -33.8125 31.8125 C-36.11739306 24.89782081 -36.28274037 17.18477556 -33 10.5625 C-25.662223 -0.83313076 -12.70765211 -5.06574207 0 0 Z " fill="#FEFBFB" transform="translate(73.9375,40.5625)"/>
<path d="M0 0 C0.66 0.66 1.32 1.32 2 2 C0.68 5.3 -0.64 8.6 -2 12 C-2.33 11.34 -2.66 10.68 -3 10 C-3.66 10 -4.32 10 -5 10 C-3.66511872 6.40608886 -2.03977277 3.24509304 0 0 Z " fill="#CA1E25" transform="translate(119,90)"/>
<path d="M0 0 C1.32 0.66 2.64 1.32 4 2 C3.35455571 5.48539917 1.89865603 8.02819057 0 11 C-0.66 10.67 -1.32 10.34 -2 10 C-1.34 6.7 -0.68 3.4 0 0 Z " fill="#CC2F35" transform="translate(50,196)"/>
</svg>
